<svg width="200" height="177" viewBox="0 0 200 177" fill="none" xmlns="http://www.w3.org/2000/svg">
<g clip-path="url(#clip0_1263_6086)">
<path d="M118.686 70.3455C119.536 72.0046 121.378 72.9834 122.944 73.9947C124.451 74.9663 125.963 75.938 127.482 76.8737C128.242 77.3535 129.005 77.8333 129.77 78.3132C130.419 76.9426 131.153 75.6144 131.969 74.3365C130.896 73.4845 129.762 72.7123 128.576 72.0262C126.834 71.0092 124.991 70.1759 123.077 69.5394C122.296 69.2768 121.497 69.07 120.687 68.9204C120.651 68.931 120.614 68.9342 120.577 68.9299C120.54 68.9256 120.504 68.9138 120.471 68.8953C119.118 68.6901 117.927 68.8593 118.686 70.3455Z" fill="#004E6B"/>
<path d="M152.064 89.3958C148.825 88.7444 145.492 87.2833 142.462 85.9014C139.076 84.3418 135.773 82.6085 132.566 80.7084C129.327 78.8119 126.178 76.8074 123.033 74.7813C121.741 73.9464 120.211 73.1367 119.15 72.0246C118.66 71.5136 118.016 70.7579 117.843 70.0273C115.725 74.2811 113.566 78.5204 111.366 82.7453C98.9763 106.588 85.469 129.802 70.8438 152.388C76.8817 153.251 82.9593 153.808 89.0534 154.058C97.5248 154.468 106.005 154.754 114.493 154.914L116.407 154.943C128.458 132.739 141.035 110.841 154.137 89.2482C153.473 89.4919 152.755 89.543 152.064 89.3958Z" fill="#004E6B"/>
<path d="M132.814 74.2105L132.904 74.2825C133.231 74.5488 132.868 74.9375 132.544 74.7611C131.744 76.0219 131.023 77.3307 130.385 78.6801C135.88 82.0306 141.566 85.1579 147.608 87.3531C149.177 87.9217 151.041 88.7926 152.704 88.8538C154.982 88.9474 155.356 86.8385 154.003 85.255C152.819 83.8731 151.236 82.7143 149.785 81.5879C148.335 80.4615 146.795 79.3207 145.237 78.2699C139.127 74.1541 132.52 70.8299 125.573 68.377C125.487 68.8016 125.404 69.2227 125.318 69.6473C125.311 69.6776 125.3 69.7067 125.285 69.7337C127.842 70.805 130.247 72.2099 132.436 73.9118C132.523 73.9112 132.609 73.9405 132.677 73.9948C132.746 74.0491 132.794 74.1252 132.814 74.2105Z" fill="#004E6B"/>
<path d="M159.3 17.9008C159.507 17.6162 159.692 17.3153 159.851 17.0011C159.867 16.9715 159.894 16.9496 159.927 16.9401C159.959 16.9307 159.994 16.9345 160.023 16.9507C160.053 16.967 160.075 16.9943 160.084 17.0267C160.094 17.0591 160.09 17.0939 160.074 17.1235C159.889 17.4229 159.729 17.737 159.595 18.0627C159.588 18.0838 159.577 18.1034 159.563 18.1203C159.883 18.3434 160.203 18.563 160.534 18.7717C160.732 18.4838 160.894 18.1743 161.089 17.8792C161.108 17.8448 161.141 17.8197 161.179 17.8092C161.217 17.7987 161.258 17.8039 161.292 17.8234C161.326 17.843 161.351 17.8754 161.362 17.9135C161.372 17.9517 161.367 17.9924 161.348 18.0268C161.197 18.347 161.017 18.6565 160.873 18.984C161.233 19.1999 161.553 19.4195 161.898 19.6318C162.118 19.3259 162.348 19.0236 162.578 18.7285C162.686 18.5954 162.899 18.7645 162.816 18.9084C162.636 19.2251 162.456 19.5418 162.251 19.8477L163.406 20.5675C163.658 20.2724 163.942 19.9917 164.209 19.711C164.349 19.5634 164.551 19.7757 164.428 19.9305C164.209 20.2112 163.989 20.5027 163.759 20.7762C164.184 21.0317 164.612 21.2836 165.04 21.5355C165.281 21.1757 165.515 20.8446 165.76 20.5027C165.864 20.3479 166.12 20.4775 166.015 20.643C165.807 21.0029 165.594 21.3628 165.393 21.7227L166.472 22.3416C166.634 22.1846 166.784 22.0149 166.919 21.8342C167.016 21.6759 167.095 21.5139 167.185 21.352C167.204 21.3205 167.233 21.2966 167.268 21.2847C167.302 21.2728 167.34 21.2736 167.374 21.2871C167.409 21.3005 167.437 21.3256 167.454 21.3579C167.472 21.3902 167.477 21.4277 167.469 21.4636C167.362 21.8801 167.158 22.265 166.872 22.5864C167.152 22.7483 167.437 22.9066 167.721 23.065C167.811 22.9102 167.926 22.7663 168.023 22.6187C168.121 22.4712 168.268 22.2373 168.408 22.0573C168.549 21.8774 168.714 22.0969 168.653 22.2409C168.556 22.4712 168.434 22.6871 168.326 22.9066C168.257 23.0362 168.2 23.1694 168.128 23.2917L169.402 24.0115C169.661 23.684 169.97 23.3853 170.255 23.083C170.409 22.9174 170.614 23.155 170.499 23.3241C170.269 23.6228 170.046 23.9395 169.798 24.231C170.309 24.5117 170.827 24.7816 171.341 25.0587C171.586 24.6988 171.842 24.3389 172.094 23.9791C172.191 23.8387 172.453 23.9107 172.396 24.0978C172.231 24.5175 172.014 24.9151 171.752 25.2818C172.112 25.469 172.45 25.6597 172.803 25.8432C173.054 25.4833 173.296 25.1235 173.522 24.7852C173.543 24.7484 173.577 24.7214 173.618 24.7099C173.658 24.6984 173.701 24.7035 173.738 24.724C173.775 24.7445 173.802 24.7788 173.813 24.8193C173.825 24.8598 173.82 24.9032 173.799 24.9399C173.638 25.3333 173.435 25.7085 173.195 26.0591L174.49 26.7429C174.645 26.4982 174.825 26.2715 174.991 26.0232C175.113 25.8082 175.28 25.6217 175.48 25.4761C175.501 25.4644 175.524 25.4589 175.548 25.4603C175.571 25.4617 175.594 25.47 175.613 25.4841C175.632 25.4982 175.647 25.5176 175.655 25.5398C175.663 25.562 175.665 25.5862 175.66 25.6093C175.569 25.9161 175.418 26.2022 175.217 26.4514C175.113 26.6134 175.009 26.7753 174.901 26.9336C175.221 27.0956 175.548 27.2539 175.876 27.4051C179.319 23.4752 182.351 19.2028 184.923 14.6547C185.243 14.0861 185.56 13.5175 185.866 12.9417C186.056 12.6576 186.19 12.3401 186.262 12.0061C186.241 12.019 186.22 12.0299 186.197 12.0385C184.696 12.4235 183.318 12.0385 181.976 11.4842C180.155 10.7381 178.367 9.92239 176.614 9.0371C173.461 7.42127 169.769 5.77664 167.703 2.67813C167.505 2.37943 168.002 2.05914 168.2 2.35424C170.15 5.25123 173.645 6.83467 176.624 8.34614C178.193 9.14147 179.78 9.8936 181.4 10.5774C182.865 11.1963 184.412 11.9089 186.1 11.4734H186.154C186.013 11.2751 185.86 11.0852 185.697 10.9048C184.997 10.051 184.244 9.24325 183.44 8.4865C181.769 6.93469 179.925 5.57988 177.945 4.44871C175.959 3.30866 173.882 2.33719 171.734 1.54452C170.82 1.20624 169.862 0.767197 168.88 0.637642C168.264 0.554871 167.509 0.55847 167.041 1.16306C166.656 1.71093 166.308 2.28447 166.001 2.87966C163.347 7.48844 160.809 12.1596 158.386 16.8932C158.366 16.9399 158.333 16.9798 158.291 17.008C158.249 17.0361 158.199 17.0513 158.148 17.0515C158.508 17.361 158.897 17.6525 159.286 17.9332C159.293 17.9188 159.293 17.908 159.3 17.9008Z" fill="#004E6B"/>
<path d="M157.664 148.455C157.702 148.731 157.702 149.011 157.664 149.286C157.754 149.017 157.754 148.725 157.664 148.455Z" fill="#004E6B"/>
<path d="M14.5397 160.573C11.2886 160.213 8.13793 159.227 5.26219 157.668C2.34721 156.027 -0.254675 153.307 1.46912 150.788C1.68505 150.471 0.976094 150.19 0.749374 150.511C-0.988818 152.839 0.587431 155.333 2.959 157.208C5.74443 159.407 9.92616 160.864 14.2123 161.372C14.9968 161.454 15.3423 160.673 14.5397 160.573Z" fill="#282828"/>
<path d="M179.867 27.0691C180.253 28.1487 179.187 28.2279 178.428 28.1775C178.288 28.2456 178.133 28.2754 177.978 28.2639C177.895 28.2776 177.811 28.286 177.726 28.2891C177.316 28.2891 176.445 28.2675 176.377 27.7349C176.28 27.8248 176.186 27.922 176.085 28.012C176.049 28.0321 176.008 28.0427 175.966 28.0427C175.925 28.0427 175.884 28.0321 175.848 28.012L176.409 28.2567C177.489 28.7029 179.731 29.1132 180.324 28.0192C180.351 27.8616 180.34 27.7001 180.292 27.5476C180.245 27.3951 180.162 27.2559 180.051 27.1411C180.009 27.094 179.984 27.0348 179.978 26.9721C179.972 26.9094 179.987 26.8466 180.019 26.7927C180.052 26.7388 180.101 26.6968 180.159 26.6727C180.217 26.6486 180.281 26.6438 180.342 26.6588C180.043 25.9779 179.587 25.3774 179.011 24.9062L178.651 25.3381C179.182 25.8158 179.598 26.4076 179.867 27.0691Z" fill="#282828"/>
<path d="M156.491 13.2286C156.333 13.1847 156.167 13.1751 156.005 13.2006C155.843 13.226 155.688 13.2859 155.551 13.3762C155.549 13.4242 155.535 13.471 155.512 13.5129C155.537 13.5298 155.554 13.5553 155.562 13.5845C155.569 13.6137 155.565 13.6446 155.551 13.6713C155.89 13.3114 156.771 13.3582 157.066 13.4014C157.651 13.5169 158.219 13.7042 158.758 13.9592L159.197 14.1463L159.463 13.6389C159.128 13.4985 158.797 13.3582 158.459 13.225C158.015 13.0342 157.55 12.8977 157.074 12.8184C157.264 12.9551 156.829 13.315 156.491 13.2286Z" fill="#282828"/>
<path d="M155.423 14.9783C155.606 15.2374 155.8 15.4893 156.006 15.7304C156.405 16.2039 156.836 16.6488 157.298 17.062C158.223 17.8755 159.211 18.6155 160.252 19.2752C162.84 20.9594 165.528 22.5141 168.22 24.0075C170.699 25.3967 173.218 26.865 175.831 28.0094C175.676 27.9446 175.547 27.7934 175.705 27.6135L175.885 27.4048C175.558 27.2536 175.23 27.0953 174.91 26.9333C174.861 27.0094 174.808 27.0827 174.751 27.1528C174.59 27.3508 174.284 27.1025 174.392 26.8901C174.42 26.8362 174.456 26.7822 174.489 26.7282L173.193 26.0444C173.164 26.0876 173.139 26.1344 173.11 26.174C172.938 26.4187 172.524 26.174 172.7 25.9473L172.787 25.8285C172.427 25.645 172.067 25.4686 171.736 25.2671C171.707 25.2995 171.685 25.3391 171.66 25.3715C171.498 25.5802 171.146 25.3103 171.3 25.0944L171.336 25.0476C170.822 24.7705 170.303 24.5006 169.792 24.2199C169.76 24.2559 169.731 24.299 169.695 24.335C169.497 24.5546 169.206 24.2451 169.379 24.0219V24.0004L168.105 23.2806C168.061 23.3567 168.013 23.43 167.961 23.5001C167.788 23.7125 167.525 23.4425 167.601 23.2338C167.627 23.1721 167.657 23.112 167.691 23.0539C167.406 22.8955 167.122 22.7372 166.841 22.5753C166.821 22.6044 166.798 22.6321 166.773 22.658C166.73 22.6942 166.674 22.7135 166.618 22.7121C166.561 22.7108 166.507 22.689 166.465 22.6508C166.424 22.6126 166.397 22.5605 166.391 22.5043C166.385 22.448 166.399 22.3914 166.431 22.3449L165.352 21.7259L165.319 21.7763C165.193 22.0066 164.823 21.7763 164.959 21.5784L164.995 21.5244C164.567 21.2725 164.139 21.0206 163.714 20.7651L163.567 20.9414C163.387 21.143 163.106 20.8551 163.275 20.6499C163.3 20.6175 163.333 20.5887 163.361 20.5564L162.206 19.8366C162.206 19.8546 162.188 19.8726 162.177 19.887C162.03 20.1173 161.652 19.887 161.818 19.6819L161.864 19.6207C161.504 19.4084 161.181 19.1888 160.839 18.9729C160.839 18.9813 160.839 18.9897 160.839 18.9981C160.734 19.2392 160.338 19.0161 160.479 18.8038L160.504 18.7606C160.173 18.5519 159.853 18.3323 159.532 18.1092C159.507 18.146 159.467 18.171 159.423 18.1787C159.379 18.1865 159.333 18.1764 159.297 18.1506C159.26 18.1248 159.235 18.0855 159.227 18.0413C159.219 17.9971 159.23 17.9516 159.255 17.9149C158.867 17.6342 158.485 17.3427 158.118 17.0332C158.056 17.0346 157.996 17.0146 157.948 16.9766C157.899 16.9385 157.865 16.8847 157.852 16.8245C157.821 16.86 157.781 16.8876 157.737 16.9049C157.693 16.9223 157.646 16.929 157.599 16.9244C157.552 16.9199 157.506 16.9042 157.466 16.8787C157.427 16.8532 157.393 16.8185 157.37 16.7777C157.1 16.2091 156.365 16.1011 156.056 15.5505C155.913 15.3038 155.868 15.012 155.93 14.7336C155.775 14.5177 155.624 14.2981 155.48 14.0678C155.459 14.0293 155.428 13.9971 155.39 13.9743C155.394 13.882 155.425 13.7931 155.48 13.7188C155.426 13.7623 155.362 13.7908 155.293 13.8015C155.244 13.8081 155.196 13.8189 155.149 13.8339C155.125 13.8648 155.104 13.8987 155.088 13.9347C155.066 13.9885 155.03 14.0356 154.984 14.0714L154.883 14.2226C154.9 14.2524 154.92 14.2802 154.944 14.3053C155.116 14.5209 155.275 14.7455 155.423 14.9783Z" fill="#282828"/>
<path d="M155.554 13.6759C155.568 13.6493 155.572 13.6184 155.564 13.5892C155.557 13.56 155.539 13.5345 155.514 13.5176C155.487 13.5579 155.451 13.5922 155.41 13.6183C155.317 13.6765 155.238 13.7553 155.18 13.8487C155.227 13.8337 155.275 13.8229 155.324 13.8163C155.392 13.8056 155.457 13.777 155.511 13.7335C155.528 13.7171 155.543 13.6976 155.554 13.6759Z" fill="#282828"/>
<path d="M180.452 26.7363C180.422 26.703 180.384 26.6782 180.341 26.6643C180.28 26.6493 180.215 26.6541 180.157 26.6782C180.099 26.7023 180.05 26.7443 180.018 26.7982C179.985 26.852 179.971 26.9149 179.976 26.9776C179.982 27.0402 180.008 27.0995 180.049 27.1466C180.16 27.2614 180.243 27.4006 180.29 27.5531C180.338 27.7056 180.349 27.8671 180.323 28.0246C180.285 28.2582 180.205 28.4827 180.085 28.6868C179.725 29.3634 178.952 29.5181 178.243 29.5109C176.962 29.5109 175.623 28.7408 174.479 28.2514C172.011 27.1931 169.608 25.9915 167.281 24.6526C164.953 23.3146 162.705 21.8427 160.548 20.2442C159.389 19.3913 158.266 18.4916 157.161 17.5667C156.802 17.2752 154.898 15.6702 154.642 14.6445C154.506 14.8605 154.376 15.08 154.25 15.3031C154.272 15.3758 154.3 15.4468 154.333 15.5154C155.031 16.9153 156.701 17.9482 157.885 18.909C160.849 21.3028 164.002 23.4523 167.313 25.3364C169.008 26.3081 170.75 27.1933 172.521 28.0175C174.065 28.8019 175.673 29.452 177.329 29.9608C177.745 30.0907 178.183 30.1338 178.616 30.0874C179.05 30.041 179.469 29.906 179.848 29.6909C180.033 29.3037 180.154 28.8894 180.208 28.4637C180.258 28.1038 180.798 28.2334 180.766 28.5861C180.893 28.2796 180.931 27.9433 180.876 27.616C180.821 27.2887 180.674 26.9837 180.452 26.7363Z" fill="#282828"/>
<path d="M158.939 14.6472L159.152 14.7983C159.458 15.0359 159.037 15.4605 158.731 15.2338C158.732 15.2445 158.732 15.2554 158.731 15.2662C158.511 15.7016 158.281 16.1299 158.04 16.5545C158.025 16.5811 158.006 16.6044 157.982 16.6229C157.982 16.6553 157.982 16.6841 157.982 16.7057C157.97 16.7544 157.945 16.7991 157.91 16.8352C157.923 16.8955 157.957 16.9492 158.006 16.9873C158.054 17.0254 158.115 17.0454 158.176 17.0439C158.227 17.0437 158.277 17.0286 158.319 17.0004C158.361 16.9723 158.394 16.9324 158.414 16.8856C160.82 12.1569 163.349 7.48809 166 2.87931C166.308 2.28658 166.655 1.71546 167.04 1.1699C167.508 0.565316 168.264 0.561717 168.879 0.644488C169.862 0.774043 170.819 1.21309 171.733 1.55137C173.885 2.34348 175.966 3.31496 177.955 4.45555C179.935 5.58673 181.779 6.94153 183.45 8.49334C184.25 9.24813 185 10.0535 185.696 10.9045C185.85 11.0856 185.993 11.2755 186.124 11.4731C186.187 11.4735 186.248 11.4946 186.298 11.5333C186.347 11.5719 186.382 11.6259 186.398 11.6867C186.414 11.7475 186.409 11.8118 186.384 11.8695C186.359 11.9272 186.316 11.9751 186.261 12.0057C186.189 12.3398 186.055 12.6573 185.865 12.9414C185.559 13.5172 185.243 14.0858 184.922 14.6544C182.35 19.2025 179.319 23.4749 175.875 27.4047L175.695 27.6135C175.537 27.7934 175.666 27.9445 175.821 28.0093C175.857 28.0295 175.898 28.0401 175.94 28.0401C175.981 28.0401 176.022 28.0295 176.059 28.0093C176.159 27.9193 176.253 27.8222 176.35 27.7322C176.339 27.6691 176.339 27.6046 176.35 27.5415C176.444 27.1663 176.677 26.8407 177.001 26.631C177.098 26.5275 177.223 26.4549 177.361 26.4223L177.556 26.3395C177.549 26.2822 177.557 26.2241 177.577 26.1703C177.598 26.1164 177.631 26.0683 177.674 26.03V25.8645C177.673 25.8112 177.686 25.7587 177.712 25.7121C177.738 25.6655 177.775 25.6265 177.821 25.5991C177.867 25.5718 177.919 25.5569 177.972 25.5561C178.025 25.5553 178.078 25.5686 178.124 25.5946L178.333 25.7313C178.445 25.6054 178.553 25.4758 178.664 25.3462L179.024 24.9144C181.849 21.4848 184.062 17.4902 186.182 13.5532C186.542 12.909 187.107 12.0741 186.75 11.3615C186.247 10.3467 185.347 9.52258 184.591 8.73806C182.79 6.93259 180.763 5.36847 178.56 4.08488C176.442 2.84883 174.217 1.80464 171.913 0.964776C170.401 0.396175 168.199 -0.769817 166.684 0.766846C165.867 1.59456 165.327 2.98727 164.751 4.00571C163.964 5.39003 163.186 6.78154 162.416 8.18025C161.419 9.97962 160.447 11.8222 159.486 13.6539L159.22 14.1614L158.939 14.6472Z" fill="#282828"/>
<path d="M181.379 10.5766C179.76 9.89281 178.173 9.13708 176.604 8.34536C173.624 6.83389 170.126 5.25044 168.179 2.35345C167.981 2.05836 167.485 2.37865 167.682 2.67734C169.766 5.77586 173.44 7.42048 176.622 9.03631C178.376 9.924 180.163 10.7397 181.984 11.4835C183.319 12.0305 184.704 12.4227 186.205 12.0377C186.228 12.0291 186.25 12.0182 186.27 12.0053C186.325 11.9747 186.368 11.9268 186.393 11.8691C186.418 11.8114 186.423 11.7471 186.407 11.6863C186.391 11.6254 186.356 11.5715 186.306 11.5328C186.257 11.4942 186.196 11.473 186.133 11.4727H186.079C184.395 11.9081 182.848 11.1956 181.379 10.5766Z" fill="#282828"/>
<path d="M132.902 74.281L132.812 74.209C132.818 74.2659 132.804 74.3231 132.772 74.3709C132.69 74.5005 132.614 74.63 132.531 74.7596C132.866 74.9359 133.229 74.5473 132.902 74.281Z" fill="#282828"/>
<path d="M118.606 68.4994C118.354 69.0104 118.095 69.5178 117.84 70.0289C118.013 70.7486 118.657 71.5152 119.146 72.0262C120.208 73.1382 121.737 73.9479 123.029 74.7828C126.175 76.8089 129.334 78.8134 132.562 80.7099C135.77 82.6101 139.073 84.3434 142.459 85.9029C145.489 87.2848 148.814 88.7459 152.06 89.3973C152.75 89.548 153.469 89.5006 154.133 89.2605L155.101 87.6627C155.143 87.5931 155.211 87.5425 155.289 87.5217C155.368 87.5009 155.451 87.5114 155.522 87.5511C155.553 87.1859 155.507 86.8184 155.389 86.4715C155.029 85.3163 154.166 84.4346 153.23 83.5925C151.826 82.351 150.333 81.1922 148.832 80.0622C141.698 74.7258 133.782 70.5244 125.365 67.6069C125.324 67.5938 125.282 67.5891 125.24 67.5932C125.197 67.5973 125.156 67.61 125.119 67.6306C125.082 67.6512 125.05 67.6792 125.024 67.7129C124.998 67.7466 124.979 67.7852 124.969 67.8264C124.865 68.3627 124.757 68.9061 124.649 69.4315L124.019 69.1904C122.716 68.7369 120.028 67.6573 118.639 68.3375C118.643 68.3934 118.632 68.4494 118.606 68.4994ZM120.445 68.8845C120.385 68.8477 120.339 68.7911 120.315 68.7242C120.292 68.6574 120.293 68.5845 120.317 68.518C120.341 68.4515 120.388 68.3955 120.449 68.3595C120.51 68.3236 120.581 68.3099 120.651 68.3208C120.721 68.3317 120.785 68.3666 120.832 68.4195C120.88 68.4723 120.907 68.5399 120.91 68.6107C120.913 68.6814 120.891 68.751 120.848 68.8075C120.805 68.864 120.744 68.9039 120.676 68.9205C121.486 69.07 122.284 69.2768 123.065 69.5394C124.983 70.1752 126.829 71.0086 128.575 72.0262C129.761 72.7123 130.895 73.4845 131.968 74.3366C132.03 74.2394 132.087 74.1386 132.152 74.0451C132.181 73.9998 132.222 73.9635 132.27 73.94C132.318 73.9165 132.372 73.9068 132.426 73.9119C130.24 72.2043 127.838 70.7933 125.282 69.7158C125.297 69.6888 125.308 69.6597 125.314 69.6294C125.401 69.2048 125.484 68.7837 125.57 68.3591C132.515 70.8193 139.12 74.1508 145.226 78.2736C146.785 79.3244 148.296 80.4328 149.775 81.5916C151.254 82.7504 152.809 83.8768 153.993 85.2587C155.346 86.8386 154.972 88.9475 152.694 88.8575C151.031 88.7855 149.167 87.9254 147.598 87.3568C141.556 85.158 135.87 82.0343 130.374 78.6838L130.273 78.889C130.104 79.2488 129.485 78.9214 129.651 78.5615L129.77 78.3168C129.004 77.8369 128.241 77.3571 127.481 76.8773C125.962 75.9236 124.451 74.9519 122.943 73.9983C121.377 72.987 119.535 72.0082 118.686 70.3492C117.926 68.8593 119.117 68.6901 120.445 68.8845Z" fill="#282828"/>
<path d="M129.653 78.5575C129.487 78.9173 130.106 79.2484 130.275 78.885L130.376 78.6798C131.015 77.3304 131.736 76.0216 132.535 74.7608C132.618 74.6312 132.694 74.5017 132.777 74.3721C132.808 74.3243 132.822 74.2671 132.816 74.2102C132.796 74.1236 132.747 74.0466 132.677 73.9922C132.607 73.9377 132.52 73.9092 132.431 73.9115C132.378 73.9064 132.324 73.9161 132.276 73.9396C132.227 73.9631 132.187 73.9994 132.158 74.0446C132.093 74.1382 132.035 74.239 131.974 74.3361C131.158 75.614 130.424 76.9422 129.775 78.3128L129.653 78.5575Z" fill="#282828"/>
<path d="M120.678 68.9197C120.747 68.9032 120.808 68.8632 120.851 68.8067C120.893 68.7502 120.915 68.6807 120.912 68.6099C120.909 68.5392 120.882 68.4716 120.835 68.4187C120.788 68.3659 120.724 68.331 120.654 68.3201C120.584 68.3091 120.512 68.3228 120.451 68.3588C120.39 68.3948 120.344 68.4508 120.319 68.5173C120.295 68.5838 120.295 68.6567 120.318 68.7235C120.341 68.7903 120.387 68.847 120.448 68.8837C120.481 68.9061 120.519 68.9209 120.559 68.9271C120.599 68.9333 120.639 68.9308 120.678 68.9197Z" fill="#282828"/>
<path d="M117.841 70.0274C118.097 69.5164 118.356 69.009 118.608 68.4979C118.633 68.4479 118.644 68.3919 118.64 68.336C118.634 68.2704 118.608 68.2084 118.565 68.1588C118.522 68.1092 118.464 68.0747 118.4 68.0603C118.335 68.0458 118.268 68.0522 118.208 68.0785C118.148 68.1048 118.097 68.1496 118.064 68.2064C105.929 92.6779 92.6295 116.522 78.165 139.739C75.5451 143.949 72.882 148.132 70.1758 152.287L70.8451 152.388C85.4464 129.836 98.9537 106.622 111.367 82.7453C113.569 78.5228 115.727 74.2835 117.841 70.0274Z" fill="#282828"/>
<path d="M155.648 87.9527C155.67 87.9192 155.685 87.8811 155.691 87.8413C155.696 87.8015 155.693 87.7609 155.682 87.7224C155.67 87.6839 155.65 87.6485 155.623 87.6186C155.596 87.5888 155.563 87.5652 155.526 87.5496C155.455 87.5099 155.371 87.4994 155.293 87.5202C155.214 87.541 155.147 87.5916 155.105 87.6612L154.137 89.2483C141.037 110.841 128.466 132.735 116.422 154.932H117.113C126.273 138.059 135.739 121.356 145.51 104.824C148.855 99.1832 152.234 93.5595 155.648 87.9527Z" fill="#282828"/>
<path d="M155.108 13.9445C155.124 13.9085 155.145 13.8746 155.169 13.8437C155.227 13.7504 155.306 13.6716 155.399 13.6134C155.441 13.5872 155.476 13.553 155.504 13.5126C155.527 13.4707 155.541 13.4239 155.543 13.3759C155.68 13.2856 155.835 13.2258 155.997 13.2003C156.159 13.1748 156.325 13.1844 156.483 13.2283C156.821 13.3255 157.264 12.9692 157.066 12.8181C157.042 12.8012 157.015 12.789 156.987 12.7821C156.112 12.5302 154.852 12.908 154.543 13.743L154.64 13.599C154.845 13.2967 155.36 13.5738 155.14 13.8797L155.004 14.0812C155.05 14.0454 155.086 13.9983 155.108 13.9445Z" fill="#282828"/>
<path d="M177.724 28.2903C177.808 28.2872 177.892 28.2788 177.975 28.2651C178.13 28.2766 178.286 28.2468 178.425 28.1787C178.779 27.9885 179.046 27.6687 179.17 27.2862C179.393 26.6169 178.843 26.0843 178.314 25.728L178.105 25.5912C178.059 25.5652 178.006 25.552 177.953 25.5528C177.9 25.5536 177.848 25.5684 177.802 25.5958C177.756 25.6232 177.719 25.6622 177.693 25.7088C177.667 25.7553 177.654 25.8079 177.655 25.8611V26.0267C177.612 26.065 177.579 26.1131 177.558 26.1669C177.537 26.2208 177.53 26.2788 177.536 26.3362L177.342 26.4189C177.204 26.4516 177.079 26.5242 176.982 26.6277C176.667 26.8435 176.445 27.1698 176.36 27.5417C176.349 27.6049 176.349 27.6693 176.36 27.7325C176.442 28.2687 177.313 28.2975 177.724 28.2903Z" fill="#282828"/>
<path d="M157.952 16.7055C157.952 16.6839 157.952 16.6551 157.952 16.6227C157.976 16.6042 157.996 16.5809 158.01 16.5544C158.251 16.1297 158.481 15.7014 158.701 15.266C158.702 15.2553 158.702 15.2444 158.701 15.2336C159.007 15.4603 159.42 15.0357 159.122 14.7982L158.909 14.647C158.107 14.1072 156.959 13.7689 156.146 14.4095C156.039 14.4948 155.964 14.6122 155.93 14.7442C155.867 15.0226 155.912 15.3144 156.056 15.5611C156.365 16.1117 157.099 16.2197 157.369 16.7883C157.393 16.8291 157.426 16.8637 157.466 16.8893C157.506 16.9148 157.551 16.9305 157.598 16.935C157.645 16.9396 157.693 16.9329 157.737 16.9155C157.781 16.8982 157.82 16.8706 157.851 16.8351C157.897 16.8026 157.932 16.7575 157.952 16.7055Z" fill="#282828"/>
<path d="M171.08 31.4141C170.721 32.2095 170.325 32.994 169.889 33.7533C169.875 33.7786 169.871 33.8086 169.879 33.8366C169.887 33.8646 169.905 33.8884 169.931 33.9027C169.956 33.917 169.986 33.9207 170.014 33.9129C170.042 33.9052 170.066 33.8866 170.08 33.8613C170.541 33.1127 170.987 32.3642 171.415 31.6013C171.537 31.3818 171.181 31.191 171.08 31.4141Z" fill="#282828"/>
<path d="M169.726 30.7156C169.294 31.4585 168.91 32.2277 168.574 33.0188C168.558 33.0484 168.554 33.0832 168.564 33.1156C168.573 33.148 168.595 33.1753 168.625 33.1915C168.654 33.2078 168.689 33.2116 168.721 33.2021C168.754 33.1927 168.781 33.1707 168.797 33.1412C169.267 32.4232 169.691 31.6768 170.068 30.9063C170.08 30.8839 170.088 30.8592 170.091 30.8337C170.094 30.8081 170.092 30.7823 170.085 30.7575C170.078 30.7328 170.066 30.7097 170.05 30.6895C170.034 30.6694 170.015 30.6526 169.992 30.64C169.97 30.6275 169.945 30.6195 169.919 30.6166C169.894 30.6136 169.868 30.6157 169.843 30.6227C169.819 30.6297 169.796 30.6415 169.775 30.6575C169.755 30.6734 169.738 30.6932 169.726 30.7156Z" fill="#282828"/>
<path d="M168.123 29.82C167.697 30.5284 167.325 31.2669 167.007 32.0297C166.992 32.0573 166.988 32.0899 166.997 32.1203C167.006 32.1507 167.026 32.1763 167.054 32.1916C167.081 32.2069 167.114 32.2105 167.144 32.2017C167.175 32.193 167.2 32.1725 167.216 32.1448C167.622 31.4251 168.079 30.7377 168.479 30.018C168.498 29.9714 168.5 29.9195 168.483 29.8719C168.466 29.8244 168.433 29.7846 168.389 29.7602C168.345 29.7357 168.294 29.7283 168.244 29.7394C168.195 29.7504 168.152 29.7791 168.123 29.82Z" fill="#282828"/>
<path d="M166.742 29.1062C166.381 29.693 166.07 30.3094 165.813 30.9487C165.748 31.0927 165.954 31.215 166.033 31.0711C166.364 30.4665 166.753 29.8871 167.076 29.2717C167.087 29.2293 167.083 29.1844 167.065 29.1446C167.047 29.1047 167.016 29.0724 166.976 29.053C166.937 29.0336 166.892 29.0282 166.85 29.0379C166.807 29.0476 166.769 29.0717 166.742 29.1062Z" fill="#282828"/>
<path d="M165.542 28.4299C165.282 28.9399 164.997 29.436 164.685 29.9161C164.613 30.0241 164.783 30.1501 164.865 30.0529C165.256 29.6154 165.592 29.132 165.866 28.6134C165.985 28.4083 165.664 28.2283 165.542 28.4299Z" fill="#282828"/>
<path d="M164.573 27.8982C164.335 28.2242 164.118 28.5643 163.921 28.9167C163.856 29.0246 164.018 29.1506 164.105 29.0498C164.373 28.7526 164.624 28.4402 164.857 28.1142C164.968 27.945 164.695 27.7363 164.573 27.8982Z" fill="#282828"/>
<path d="M163.331 27.2574C163.163 27.5308 163.024 27.8215 162.918 28.1247C162.908 28.1526 162.908 28.1832 162.918 28.211C162.928 28.2388 162.948 28.262 162.974 28.2767C163 28.2913 163.03 28.2963 163.059 28.2909C163.088 28.2855 163.115 28.27 163.133 28.2471C163.337 27.9972 163.512 27.7256 163.655 27.4373C163.679 27.3944 163.685 27.3437 163.671 27.2965C163.658 27.2492 163.626 27.2093 163.583 27.1854C163.54 27.1616 163.49 27.1557 163.442 27.1692C163.395 27.1827 163.355 27.2144 163.331 27.2574Z" fill="#282828"/>
<path d="M162.227 26.6313C162.058 26.9047 161.919 27.1955 161.813 27.4986C161.799 27.5275 161.797 27.5604 161.807 27.5908C161.817 27.6212 161.838 27.6467 161.865 27.6623C161.893 27.6778 161.926 27.6822 161.957 27.6745C161.988 27.6668 162.015 27.6477 162.032 27.621C162.232 27.3708 162.406 27.1007 162.551 26.8148C162.569 26.7724 162.571 26.7247 162.557 26.6807C162.542 26.6368 162.512 26.5999 162.471 26.5771C162.431 26.5542 162.384 26.5472 162.339 26.5572C162.293 26.5672 162.253 26.5936 162.227 26.6313Z" fill="#282828"/>
<path d="M161.129 26.0256C160.961 26.2994 160.822 26.5901 160.715 26.8929C160.702 26.9218 160.699 26.9547 160.709 26.9851C160.719 27.0155 160.74 27.041 160.768 27.0566C160.796 27.0721 160.828 27.0765 160.859 27.0688C160.89 27.0612 160.917 27.042 160.935 27.0153C161.135 26.7649 161.31 26.4948 161.456 26.2092C161.481 26.1657 161.487 26.1144 161.473 26.0665C161.46 26.0186 161.428 25.978 161.384 25.9537C161.341 25.9293 161.29 25.9232 161.242 25.9367C161.194 25.9502 161.153 25.9822 161.129 26.0256Z" fill="#282828"/>
<path d="M160.027 25.4107C159.86 25.6822 159.721 25.9704 159.614 26.2708C159.6 26.2997 159.598 26.3326 159.608 26.363C159.617 26.3934 159.638 26.4189 159.666 26.4345C159.694 26.45 159.727 26.4544 159.758 26.4467C159.789 26.439 159.816 26.4199 159.833 26.3932C160.034 26.1428 160.209 25.8727 160.355 25.587C160.372 25.5443 160.373 25.4968 160.357 25.4535C160.342 25.4103 160.311 25.3743 160.27 25.3524C160.229 25.3306 160.182 25.3245 160.138 25.3353C160.093 25.346 160.054 25.3729 160.027 25.4107Z" fill="#282828"/>
<path d="M101.127 74.1337C104.038 69.5453 106.975 64.9029 110.336 60.5628C110.466 60.3397 110.602 60.1202 110.743 59.9043C113.982 55.978 116.353 51.2673 119.992 47.6686C121.993 45.6892 124.587 45.0595 127.229 44.3937C129.964 43.7063 132.72 43.0082 135.488 42.49C137.96 42.0257 140.479 41.4607 142.685 40.1868C143.045 39.9816 143.369 39.7657 143.697 39.5282C146.104 37.772 147.684 35.1269 149.192 32.5538C149.933 31.2331 150.732 29.9376 151.502 28.6312L152.305 27.2637C152.813 26.4048 153.318 25.5447 153.82 24.6834C154.136 24.158 154.446 23.6254 154.752 23.0964L155.184 22.3118C155.328 22.0635 155.508 21.844 155.641 21.5921C155.665 21.5505 155.674 21.5021 155.668 21.4546C155.661 21.407 155.639 21.3629 155.605 21.3294C154.683 20.5249 154.011 19.4734 153.669 18.2992C153.384 17.252 153.737 16.2264 154.252 15.2907C154.378 15.0676 154.507 14.848 154.644 14.6321L154.907 14.2327L155.007 14.0815L155.144 13.88C155.353 13.5741 154.849 13.297 154.644 13.5993L154.547 13.7432C153.705 14.9956 152.938 16.3055 153.021 17.8638C153.093 19.1989 153.971 20.3577 154.845 21.2934C154.871 21.3258 154.899 21.351 154.925 21.3798C154.885 21.4054 154.848 21.4343 154.813 21.4661C154.726 21.5554 154.65 21.6544 154.586 21.7612L151.898 26.4396L149.062 31.3555C147.623 33.8314 146.183 36.3577 143.988 38.1931C140.137 41.4319 134.8 42.0437 130.043 42.9866C128.889 43.2265 127.738 43.4796 126.592 43.7459C124.155 44.3361 121.913 44.9587 119.93 46.5817C117.948 48.2048 116.483 50.5403 114.968 52.6276C113.845 54.1643 112.654 55.647 111.535 57.1836C110.957 57.9385 110.419 58.7229 109.922 59.5336C108.778 61.5345 107.31 63.3303 106.003 65.2304C96.9525 78.3802 64.2975 134.726 56.3047 149.081C56.5782 149.193 56.8553 149.293 57.1324 149.394C63.844 137.392 94.4153 84.66 101.127 74.1337Z" fill="#282828"/>
<path d="M165.978 60.5919C165.784 59.901 165.586 59.21 165.377 58.5118C164.445 55.4097 163.693 52.268 164.6 49.4466C165.557 46.4597 167.285 43.757 168.721 41.004C168.947 40.5685 169.174 40.1331 169.404 39.6976C170.621 37.3656 171.838 35.0337 173.057 32.7017C173.079 32.6585 173.057 32.5649 173.093 32.5325C173.129 32.5001 173.244 32.5325 173.309 32.5541C173.427 32.5866 173.547 32.6106 173.669 32.6261C173.918 32.6735 174.169 32.7083 174.421 32.7305C177.167 32.9644 180.363 31.6257 180.776 28.5883C180.809 28.2284 180.269 28.1025 180.219 28.466C180.165 28.8916 180.044 29.306 179.859 29.6931C178.754 31.9963 175.619 32.493 173.23 31.9567C173.093 31.9279 172.96 31.892 172.827 31.856C172.809 31.8526 172.791 31.8526 172.773 31.856C172.553 31.9675 172.413 32.3526 172.262 32.6045L168.663 39.5105L166.677 43.318C165.054 46.4273 163.078 49.5186 163.517 53.3944C163.756 55.1767 164.15 56.9347 164.694 58.6486C164.946 59.5123 165.208 60.376 165.46 61.2433C165.585 61.7891 165.778 62.3173 166.032 62.8159C167.18 64.8924 167.832 67.2028 168.408 69.488C168.962 71.6185 169.487 73.7273 168.98 75.9369C167.803 81.0148 164.949 85.578 163.323 90.5118C161.332 95.9459 158.781 101.153 156.273 106.303C152.947 113.141 141.014 135.564 130.617 154.886L131.643 154.847C143.335 133.049 157.194 106.692 161.286 97.4394C162.185 95.4061 163.053 93.3297 163.844 91.2136C163.887 91.1808 163.921 91.139 163.945 91.0912C165.284 88.4462 166.248 85.542 167.371 82.8141C168.339 80.4354 169.559 77.9846 169.915 75.4187C170.272 72.8528 169.613 70.6396 168.836 68.2572C167.994 65.6338 167.015 63.1074 165.978 60.5919Z" fill="#282828"/>
<path d="M175.668 25.6082C175.674 25.585 175.672 25.5609 175.664 25.5387C175.655 25.5164 175.641 25.4971 175.622 25.483C175.603 25.4689 175.58 25.4606 175.556 25.4592C175.533 25.4578 175.509 25.4633 175.489 25.475C175.288 25.6206 175.122 25.8071 174.999 26.022C174.834 26.2559 174.639 26.4827 174.499 26.7418C174.466 26.7958 174.43 26.8497 174.402 26.9037C174.283 27.116 174.589 27.3644 174.762 27.1664C174.818 27.0963 174.871 27.023 174.92 26.9469C175.028 26.7886 175.132 26.6266 175.237 26.4647C175.435 26.2103 175.582 25.9192 175.668 25.6082Z" fill="#282828"/>
<path d="M173.533 24.7696C173.291 25.1295 173.05 25.4894 172.813 25.8277L172.726 25.9464C172.55 26.1876 172.964 26.4179 173.137 26.1732C173.165 26.1336 173.191 26.0868 173.219 26.0436C173.459 25.6928 173.66 25.3176 173.82 24.9244C173.841 24.8862 173.845 24.8414 173.833 24.7999C173.821 24.7584 173.792 24.7236 173.754 24.7031C173.716 24.6825 173.671 24.678 173.629 24.6905C173.588 24.703 173.553 24.7315 173.533 24.7696Z" fill="#282828"/>
<path d="M172.088 23.9642C171.836 24.3241 171.58 24.6839 171.335 25.0438L171.299 25.0906C171.156 25.3065 171.508 25.5764 171.659 25.3677C171.685 25.3353 171.706 25.2957 171.735 25.2633C171.997 24.8978 172.214 24.5013 172.379 24.0829C172.462 23.8958 172.185 23.8238 172.088 23.9642Z" fill="#282828"/>
<path d="M170.249 23.0717C169.965 23.374 169.655 23.6727 169.396 24.0002V24.0218C169.224 24.2449 169.515 24.5544 169.713 24.3348C169.749 24.2989 169.778 24.2557 169.81 24.2197C170.059 23.9282 170.282 23.6115 170.512 23.3128C170.62 23.1437 170.404 22.9061 170.249 23.0717Z" fill="#282828"/>
<path d="M168.647 22.2296C168.708 22.0856 168.518 21.8985 168.402 22.046C168.287 22.1936 168.143 22.4059 168.017 22.6074C167.891 22.809 167.805 22.8989 167.715 23.0537C167.681 23.1118 167.651 23.1719 167.625 23.2336C167.542 23.4424 167.805 23.7123 167.985 23.4999C168.037 23.4299 168.086 23.3565 168.129 23.2804C168.201 23.1581 168.258 23.0249 168.327 22.8953C168.42 22.6722 168.55 22.4599 168.647 22.2296Z" fill="#282828"/>
<path d="M167.18 21.3411C167.09 21.5031 167.011 21.665 166.914 21.8234C166.779 22.0041 166.629 22.1738 166.468 22.3308C166.435 22.3773 166.421 22.4339 166.427 22.4901C166.434 22.5464 166.46 22.5984 166.502 22.6366C166.543 22.6748 166.598 22.6966 166.654 22.698C166.711 22.6993 166.766 22.6801 166.809 22.6439C166.834 22.6179 166.857 22.5903 166.878 22.5611C167.163 22.2398 167.368 21.8548 167.475 21.4383C167.488 21.3992 167.485 21.3565 167.466 21.3197C167.448 21.283 167.415 21.2551 167.376 21.2422C167.337 21.2293 167.294 21.2325 167.258 21.251C167.221 21.2696 167.193 21.302 167.18 21.3411Z" fill="#282828"/>
<path d="M165.755 20.4908C165.517 20.8507 165.283 21.1818 165.035 21.5236L164.999 21.5776C164.851 21.7863 165.222 22.0059 165.359 21.7755L165.391 21.7252C165.593 21.3653 165.805 21.0054 166.014 20.6455C166.104 20.4656 165.859 20.3361 165.755 20.4908Z" fill="#282828"/>
<path d="M164.211 19.7002C163.944 19.9809 163.66 20.2616 163.408 20.5567C163.379 20.5891 163.347 20.6179 163.322 20.6503C163.153 20.8554 163.433 21.1433 163.613 20.9418L163.761 20.7654C163.991 20.4919 164.211 20.2004 164.43 19.9197C164.552 19.765 164.351 19.5527 164.211 19.7002Z" fill="#282828"/>
<path d="M162.58 18.7319C162.35 19.027 162.119 19.3293 161.9 19.6352L161.853 19.6964C161.698 19.9159 162.076 20.1318 162.213 19.9015C162.213 19.9015 162.231 19.8691 162.242 19.8511C162.44 19.5452 162.627 19.2285 162.807 18.9119C162.9 18.7679 162.688 18.5988 162.58 18.7319Z" fill="#282828"/>
<path d="M161.09 17.8821C160.899 18.1772 160.73 18.4867 160.536 18.7746L160.511 18.8178C160.359 19.0301 160.755 19.2532 160.87 19.0121C160.871 19.0037 160.871 18.9953 160.87 18.9869C161.014 18.6594 161.194 18.35 161.345 18.0297C161.364 17.9958 161.369 17.956 161.359 17.9187C161.348 17.8814 161.324 17.8497 161.29 17.8303C161.257 17.811 161.217 17.8056 161.179 17.8152C161.142 17.8249 161.11 17.8489 161.09 17.8821Z" fill="#282828"/>
<path d="M160.074 17.124C160.09 17.0944 160.094 17.0596 160.085 17.0272C160.075 16.9948 160.053 16.9674 160.024 16.9512C159.994 16.935 159.959 16.9312 159.927 16.9406C159.894 16.9501 159.867 16.972 159.851 17.0016C159.692 17.3158 159.508 17.6167 159.3 17.9013C159.3 17.9013 159.3 17.9013 159.3 17.9265C159.274 17.9632 159.264 18.0087 159.272 18.0529C159.28 18.0971 159.305 18.1364 159.342 18.1622C159.378 18.188 159.424 18.1981 159.468 18.1903C159.512 18.1826 159.552 18.1576 159.577 18.1208C159.592 18.1039 159.603 18.0843 159.61 18.0632C159.739 17.738 159.894 17.4239 160.074 17.124Z" fill="#282828"/>
<path d="M32.3299 156.229C29.1839 156.597 25.9964 156.134 23.0848 154.887C20.3713 153.764 17.2296 151.889 17.0785 149.036C16.9345 146.329 19.8135 144.13 22.2355 142.878C25.0785 141.406 28.4145 140.802 31.7001 140.83C32.0924 140.83 32.06 140.341 31.7001 140.312C27.9929 140.024 24.2809 140.806 21.0047 142.565C18.2912 144.005 15.9197 146.484 16.0564 149.37C16.1932 152.256 19.4824 154.279 22.1527 155.524C25.3992 157.07 29.0334 157.61 32.589 157.075C33.2512 156.967 32.9633 156.15 32.3299 156.229Z" fill="#282828"/>
<path d="M173.785 161.224C184.491 160.451 194.909 159.065 198.616 154.16C198.95 153.753 199.196 153.28 199.337 152.773C199.478 152.265 199.512 151.734 199.437 151.213C199.232 150.036 198.415 148.945 197.065 148.057C196.116 147.465 195.089 147.011 194.013 146.707C194.959 147.016 195.865 147.435 196.712 147.956C198.048 148.798 198.832 149.896 198.98 151.133C199.138 152.454 198.577 153.851 197.396 155.071C192.963 159.641 182.256 160.519 173.645 161.221C173.691 161.227 173.738 161.228 173.785 161.224Z" fill="#282828"/>
<path d="M199.944 151.148C199.717 149.827 198.817 148.629 197.345 147.643C193.934 145.393 187.989 145.152 185.57 145.152H185.459C185.052 145.152 184.868 145.383 184.868 145.595C184.868 145.807 185.052 146.038 185.459 146.041C190.159 146.084 194.052 146.93 196.424 148.424C197.622 149.179 198.321 150.147 198.45 151.223C198.59 152.382 198.09 153.627 197.011 154.729C192.714 159.162 182.101 160.03 173.572 160.728H173.511C172.917 160.774 172.899 161.149 172.903 161.221C172.903 161.537 173.263 161.771 173.723 161.771H173.82C184.653 160.99 195.2 159.565 199.012 154.502C199.393 154.039 199.674 153.502 199.834 152.924C199.995 152.346 200.032 151.741 199.944 151.148ZM198.972 151.148C198.824 149.91 198.04 148.812 196.705 147.97C195.857 147.45 194.951 147.03 194.006 146.721C195.081 147.025 196.109 147.48 197.057 148.071C198.407 148.96 199.217 150.05 199.429 151.227C199.504 151.748 199.47 152.28 199.329 152.787C199.188 153.295 198.942 153.767 198.608 154.174C194.909 159.065 184.491 160.461 173.784 161.224C173.735 161.23 173.686 161.23 173.637 161.224C182.249 160.523 192.955 159.644 197.388 155.074C198.569 153.861 199.13 152.465 198.972 151.148Z" fill="#282828"/>
<path d="M125.472 173.553C119.193 174.731 112.812 175.283 106.424 175.201C99.8416 175.104 93.3782 174.122 86.9437 172.797C86.8589 172.778 86.7701 172.793 86.6956 172.837C86.6211 172.882 86.5666 172.954 86.5435 173.037C86.5203 173.121 86.5303 173.21 86.5713 173.287C86.6123 173.364 86.6812 173.422 86.7638 173.449C99.2586 177.047 113.06 177.166 125.735 174.528C126.368 174.381 126.098 173.434 125.472 173.553Z" fill="#282828"/>
<path d="M50.5056 136.753C46.7879 136.373 43.0342 136.929 39.587 138.372C39.2271 138.524 39.3675 139.114 39.7525 138.973C43.1865 137.699 46.8595 137.199 50.5092 137.509C51.0022 137.552 50.9914 136.789 50.5056 136.753Z" fill="#282828"/>
<path d="M122.118 154.987C120.453 154.987 118.784 154.976 117.112 154.955H116.421L114.506 154.926C106.025 154.773 97.5455 154.487 89.0668 154.07C82.9727 153.82 76.8951 153.263 70.8572 152.4L70.1878 152.299C69.2522 152.155 68.3189 151.998 67.388 151.828C66.2268 151.619 65.068 151.391 63.9116 151.144C61.6197 150.714 59.3575 150.138 57.1388 149.42C56.8617 149.319 56.5846 149.219 56.3111 149.107C55.5408 148.802 54.7939 148.441 54.0763 148.027C53.6732 147.772 53.2917 147.485 52.9355 147.167C52.4483 146.678 52.1664 146.022 52.1474 145.332C52.0826 144.105 53.3241 143.655 54.2706 143.342C54.389 143.298 54.4868 143.212 54.5444 143.099C54.6021 142.987 54.6156 142.857 54.5821 142.735C54.5486 142.614 54.4706 142.509 54.3636 142.442C54.2567 142.375 54.1284 142.351 54.0043 142.374C51.5788 142.957 49.9989 144.565 50.9778 147.146C51.9818 149.805 55.0911 150.28 57.5707 150.471H57.7434C58.4236 150.683 59.1109 150.878 59.7875 151.065C62.3858 151.784 65.02 152.353 67.6687 152.832C69.1082 153.096 70.5477 153.335 71.9872 153.551C80.124 154.725 88.3543 155.084 96.563 155.387C104.66 155.685 112.779 155.995 120.89 156.02C129.887 156.045 138.884 155.729 147.823 154.649C148.986 154.512 150.202 154.343 151.397 154.088C151.994 154.056 152.579 153.906 153.117 153.645C154.989 153.069 156.734 152.177 158.062 150.694C158.509 150.238 158.767 149.629 158.782 148.99C158.798 148.351 158.57 147.731 158.145 147.254C157.263 146.196 155.507 145.972 154.233 145.886C154.127 145.877 154.021 145.902 153.931 145.958C152.322 145.816 150.701 145.89 149.112 146.178C148.475 146.293 148.651 147.257 149.259 147.257C150.474 147.255 151.687 147.349 152.887 147.538C153.851 147.714 155.003 147.772 155.766 148.474C156.622 149.28 154.801 151.086 154.298 151.558C153.745 151.984 153.16 152.367 152.549 152.702L152.257 152.785C148.399 153.89 144.156 154.034 140.176 154.347C137.333 154.57 134.49 154.707 131.644 154.818L130.618 154.858C127.782 154.955 124.95 154.987 122.118 154.987ZM157.666 148.456C157.756 148.725 157.756 149.017 157.666 149.287C157.704 149.011 157.704 148.731 157.666 148.456Z" fill="#282828"/>
</g>
<defs>
<clipPath id="clip0_1263_6086">
<rect width="200" height="176.345" fill="white"/>
</clipPath>
</defs>
</svg>
