<svg width="24" height="24" viewBox="0 0 24 24" fill="none" xmlns="http://www.w3.org/2000/svg">
<path d="M12.4956 11.989L10.2956 14.0378C9.07866 15.1712 9.07866 17.0166 10.2956 18.15C11.5126 19.2833 13.4941 19.2833 14.7111 18.15L18.1748 14.9242C19.3436 13.8325 20 12.3537 20 10.812C20 9.27033 19.3436 7.79155 18.1748 6.69984C17.0026 5.61128 15.4147 5 13.7593 5C12.104 5 10.5161 5.61128 9.3439 6.69984L5.56815 10.2163C5.07101 10.6788 4.67664 11.2281 4.40757 11.8328C4.13849 12.4374 4 13.0854 4 13.7399C4 14.3944 4.13849 15.0425 4.40757 15.6471C4.67664 16.2517 5.07101 16.801 5.56815 17.2636" stroke="#282828" stroke-opacity="0.7" stroke-width="1.5" stroke-linecap="round" stroke-linejoin="round"/>
</svg>
