<svg width="14" height="14" viewBox="0 0 14 14" fill="none" xmlns="http://www.w3.org/2000/svg">
<path d="M7.30972 7.36812L5.93477 8.64862C5.17416 9.35699 5.17416 10.5104 5.93477 11.2187C6.69538 11.9271 7.93381 11.9271 8.69443 11.2187L10.8592 9.2026C11.5898 8.52029 12 7.59605 12 6.6325C12 5.66895 11.5898 4.74472 10.8592 4.0624C10.1266 3.38205 9.1342 3 8.09959 3C7.06498 3 6.07257 3.38205 5.33994 4.0624L2.98009 6.26016C2.66938 6.54928 2.4229 6.89259 2.25473 7.27047C2.08656 7.64835 2 8.0534 2 8.46245C2 8.8715 2.08656 9.27655 2.25473 9.65443C2.4229 10.0323 2.66938 10.3756 2.98009 10.6647" stroke="#282828" stroke-opacity="0.7" stroke-width="1.5" stroke-linecap="round" stroke-linejoin="round"/>
</svg>
