<svg width="143" height="40" viewBox="0 0 143 40" fill="none" xmlns="http://www.w3.org/2000/svg">
<path d="M0 8C0 3.58172 3.58172 0 8 0H135C139.418 0 143 3.58172 143 8V32C143 36.4183 139.418 40 135 40H8C3.58173 40 0 36.4183 0 32V8Z" fill="#004E6B"/>
<path d="M20 30C25.5 30 30 25.5 30 20C30 14.5 25.5 10 20 10C14.5 10 10 14.5 10 20C10 25.5 14.5 30 20 30Z" stroke="#FFFDFD" stroke-width="1.5" stroke-linecap="round" stroke-linejoin="round"/>
<path d="M16 20H24" stroke="#FFFDFD" stroke-width="1.5" stroke-linecap="round" stroke-linejoin="round"/>
<path d="M20 24V16" stroke="#FFFDFD" stroke-width="1.5" stroke-linecap="round" stroke-linejoin="round"/>
<path d="M41.68 26V14.8H42.992L50.4 24H49.712V14.8H51.312V26H50L42.592 16.8H43.28V26H41.68ZM58.2164 26.096C57.3097 26.096 56.5097 25.9093 55.8164 25.536C55.1337 25.1627 54.6004 24.6507 54.2164 24C53.843 23.3493 53.6564 22.6027 53.6564 21.76C53.6564 20.9173 53.8377 20.1707 54.2004 19.52C54.5737 18.8693 55.0804 18.3627 55.7204 18C56.371 17.6267 57.1017 17.44 57.9124 17.44C58.7337 17.44 59.459 17.6213 60.0884 17.984C60.7177 18.3467 61.2084 18.8587 61.5604 19.52C61.923 20.1707 62.1044 20.9333 62.1044 21.808C62.1044 21.872 62.099 21.9467 62.0884 22.032C62.0884 22.1173 62.083 22.1973 62.0724 22.272H54.8564V21.168H61.2724L60.6484 21.552C60.659 21.008 60.547 20.5227 60.3124 20.096C60.0777 19.6693 59.7524 19.3387 59.3364 19.104C58.931 18.8587 58.4564 18.736 57.9124 18.736C57.379 18.736 56.9044 18.8587 56.4884 19.104C56.0724 19.3387 55.747 19.6747 55.5124 20.112C55.2777 20.5387 55.1604 21.0293 55.1604 21.584V21.84C55.1604 22.4053 55.2884 22.912 55.5444 23.36C55.811 23.7973 56.179 24.1387 56.6484 24.384C57.1177 24.6293 57.6564 24.752 58.2644 24.752C58.7657 24.752 59.219 24.6667 59.6244 24.496C60.0404 24.3253 60.403 24.0693 60.7124 23.728L61.5604 24.72C61.1764 25.168 60.6964 25.5093 60.1204 25.744C59.555 25.9787 58.9204 26.096 58.2164 26.096ZM65.873 26L62.721 17.52H64.177L66.977 25.2H66.289L69.201 17.52H70.497L73.345 25.2H72.673L75.537 17.52H76.913L73.745 26H72.273L69.601 18.992H70.049L67.345 26H65.873ZM81.2965 26L86.3685 14.8H87.9525L93.0405 26H91.3605L86.8325 15.696H87.4725L82.9445 26H81.2965ZM83.4565 23.2L83.8885 21.92H90.1925L90.6565 23.2H83.4565ZM94.4873 26V17.52H95.9593V19.824L95.8153 19.248C96.0499 18.6613 96.4446 18.2133 96.9993 17.904C97.5539 17.5947 98.2366 17.44 99.0473 17.44V18.928C98.9833 18.9173 98.9193 18.912 98.8553 18.912C98.8019 18.912 98.7486 18.912 98.6953 18.912C97.8739 18.912 97.2233 19.1573 96.7433 19.648C96.2633 20.1387 96.0233 20.848 96.0233 21.776V26H94.4873ZM104.196 26.096C103.343 26.096 102.681 25.8667 102.212 25.408C101.743 24.9493 101.508 24.2933 101.508 23.44V15.664H103.044V23.376C103.044 23.8347 103.156 24.1867 103.38 24.432C103.615 24.6773 103.945 24.8 104.372 24.8C104.852 24.8 105.252 24.6667 105.572 24.4L106.052 25.504C105.817 25.7067 105.535 25.856 105.204 25.952C104.884 26.048 104.548 26.096 104.196 26.096ZM100.068 18.784V17.52H105.476V18.784H100.068ZM107.909 26V17.52H109.445V26H107.909ZM108.677 15.888C108.378 15.888 108.128 15.792 107.925 15.6C107.733 15.408 107.637 15.1733 107.637 14.896C107.637 14.608 107.733 14.368 107.925 14.176C108.128 13.984 108.378 13.888 108.677 13.888C108.976 13.888 109.221 13.984 109.413 14.176C109.616 14.3573 109.717 14.5867 109.717 14.864C109.717 15.152 109.621 15.3973 109.429 15.6C109.237 15.792 108.986 15.888 108.677 15.888ZM116.074 26.096C115.21 26.096 114.437 25.9093 113.754 25.536C113.082 25.1627 112.554 24.6507 112.17 24C111.786 23.3493 111.594 22.6027 111.594 21.76C111.594 20.9173 111.786 20.1707 112.17 19.52C112.554 18.8693 113.082 18.3627 113.754 18C114.437 17.6267 115.21 17.44 116.074 17.44C116.842 17.44 117.525 17.5947 118.122 17.904C118.73 18.2027 119.199 18.6507 119.53 19.248L118.362 20C118.085 19.584 117.743 19.28 117.338 19.088C116.943 18.8853 116.517 18.784 116.058 18.784C115.503 18.784 115.007 18.9067 114.57 19.152C114.133 19.3973 113.786 19.744 113.53 20.192C113.274 20.6293 113.146 21.152 113.146 21.76C113.146 22.368 113.274 22.896 113.53 23.344C113.786 23.792 114.133 24.1387 114.57 24.384C115.007 24.6293 115.503 24.752 116.058 24.752C116.517 24.752 116.943 24.656 117.338 24.464C117.743 24.2613 118.085 23.952 118.362 23.536L119.53 24.272C119.199 24.8587 118.73 25.312 118.122 25.632C117.525 25.9413 116.842 26.096 116.074 26.096ZM121.409 26V14.128H122.945V26H121.409ZM129.654 26.096C128.747 26.096 127.947 25.9093 127.254 25.536C126.571 25.1627 126.038 24.6507 125.654 24C125.281 23.3493 125.094 22.6027 125.094 21.76C125.094 20.9173 125.275 20.1707 125.638 19.52C126.011 18.8693 126.518 18.3627 127.158 18C127.809 17.6267 128.539 17.44 129.35 17.44C130.171 17.44 130.897 17.6213 131.526 17.984C132.155 18.3467 132.646 18.8587 132.998 19.52C133.361 20.1707 133.542 20.9333 133.542 21.808C133.542 21.872 133.537 21.9467 133.526 22.032C133.526 22.1173 133.521 22.1973 133.51 22.272H126.294V21.168H132.71L132.086 21.552C132.097 21.008 131.985 20.5227 131.75 20.096C131.515 19.6693 131.19 19.3387 130.774 19.104C130.369 18.8587 129.894 18.736 129.35 18.736C128.817 18.736 128.342 18.8587 127.926 19.104C127.51 19.3387 127.185 19.6747 126.95 20.112C126.715 20.5387 126.598 21.0293 126.598 21.584V21.84C126.598 22.4053 126.726 22.912 126.982 23.36C127.249 23.7973 127.617 24.1387 128.086 24.384C128.555 24.6293 129.094 24.752 129.702 24.752C130.203 24.752 130.657 24.6667 131.062 24.496C131.478 24.3253 131.841 24.0693 132.15 23.728L132.998 24.72C132.614 25.168 132.134 25.5093 131.558 25.744C130.993 25.9787 130.358 26.096 129.654 26.096Z" fill="#FFFDFD"/>
</svg>
