<svg width="24" height="24" viewBox="0 0 24 24" fill="none" xmlns="http://www.w3.org/2000/svg">
<path d="M18.4277 1.13216C18.5817 0.96565 18.8395 0.954907 19.006 1.10888C19.1725 1.26285 19.1832 1.52067 19.0293 1.68717L15.6777 5.3145L15.6723 5.32166C15.2623 5.81759 14.9812 6.27593 14.8559 6.69488C14.7449 7.06549 14.761 7.40208 14.9257 7.69571C15.0134 7.85326 14.9848 8.04662 14.8684 8.17374L13.2768 9.89609C13.121 9.726 12.9975 9.58814 12.9151 9.49862C12.8775 9.44849 12.8345 9.40015 12.7898 9.3536L12.7862 9.35718C12.7647 9.33391 12.7414 9.31242 12.7182 9.29094L14.0788 7.81745C13.9195 7.39134 13.9213 6.93837 14.0681 6.45676C14.2257 5.93397 14.5605 5.37716 15.0421 4.79707C15.0528 4.78275 15.0618 4.76843 15.0743 4.75589L18.4241 1.12857L18.4277 1.13216ZM11.2286 10.8486C11.0782 10.6803 11.0925 10.4207 11.2608 10.2703C11.4291 10.1199 11.6887 10.1342 11.8391 10.3025C13.5238 12.1896 18.7321 17.7738 20.1751 19.8614C22.0783 22.5559 19.1313 23.4045 18.1538 22.4234C15.7117 20.0619 10.5267 14.0408 8.24756 11.4877C7.42756 11.8351 6.63084 11.8888 5.83054 11.6596C4.96937 11.4143 4.12609 10.8396 3.27029 9.95696L3.25955 9.94622C2.60785 9.25871 2.09759 8.58016 1.72877 7.90876C1.351 7.21767 1.12004 6.53375 1.03768 5.85519C0.949952 5.12471 1.01799 4.44437 1.21493 3.84101C1.44589 3.13202 1.85589 2.53224 2.393 2.08643C2.9337 1.63883 3.59793 1.34879 4.33915 1.25927C4.95504 1.18587 5.62644 1.24853 6.32111 1.47591C7.28254 1.78923 8.40332 2.56804 9.33253 3.56708C10.0183 4.30293 10.6055 5.1641 10.9546 6.05034C11.3181 6.97418 11.4291 7.93025 11.1372 8.82544C10.9654 9.35539 10.6538 9.85312 10.1704 10.3025C10.0039 10.4565 9.74611 10.4457 9.59214 10.281C9.43817 10.1145 9.44891 9.8567 9.61362 9.70273C9.98781 9.3536 10.2277 8.97225 10.3584 8.56941C10.584 7.87654 10.4891 7.10846 10.1919 6.35292C9.88039 5.56157 9.35223 4.78812 8.73276 4.12389C7.89486 3.22512 6.90119 2.52866 6.06329 2.25473C5.48858 2.06853 4.93893 2.01482 4.43583 2.07569C3.85217 2.1473 3.32937 2.3711 2.91221 2.72023C2.49326 3.06935 2.17278 3.54022 1.98838 4.10061C1.82903 4.58939 1.77353 5.15157 1.84693 5.75851C1.91676 6.33143 2.11549 6.91689 2.44134 7.51488C2.78331 8.12898 3.25239 8.75024 3.85575 9.38583L3.85933 9.3912C4.61487 10.17 5.33998 10.6713 6.05792 10.8754C6.73648 11.0688 7.42756 10.9936 8.14909 10.6337C8.31381 10.5388 8.52686 10.5711 8.65756 10.7179C10.8812 13.2083 16.29 19.4764 18.6855 21.7986C19.7257 22.2229 20.3022 21.7001 19.8045 20.7781C19.0293 19.3386 12.369 12.1305 11.2286 10.8486ZM9.06935 14.449L3.84858 20.0977C3.83784 20.1084 3.82889 20.1192 3.81636 20.1299C3.05365 20.9535 4.4036 22.1531 5.2415 21.351L10.3119 15.8634L10.8562 16.4811L5.82517 21.9257C5.81443 21.9382 5.80369 21.949 5.78936 21.9615C5.48858 22.2139 5.186 22.3787 4.87985 22.4467C4.56474 22.5183 4.255 22.4861 3.9578 22.3464C3.90767 22.3267 3.86112 22.3017 3.81994 22.2641L3.09841 21.5963C3.08767 21.5855 3.07693 21.5766 3.06619 21.564C2.78689 21.2418 2.6544 20.898 2.69021 20.5346C2.72422 20.1908 2.90684 19.856 3.25239 19.5337L8.52328 13.8296L9.06935 14.449ZM14.5408 11.2872L14.8505 10.9524C15.0045 10.7859 15.2641 10.7752 15.4288 10.9291C15.5935 11.0831 15.606 11.3409 15.4521 11.5074L15.094 11.8942L14.5408 11.2872ZM19.7007 2.32992C19.8546 2.16342 20.1124 2.15268 20.2789 2.30665C20.4455 2.46062 20.4562 2.71844 20.3022 2.88494L17.3642 6.06646C17.2102 6.23296 16.9524 6.24371 16.7859 6.08973C16.6194 5.93576 16.6087 5.67794 16.7626 5.51144L19.7007 2.32992ZM20.9718 3.50621C21.1258 3.3397 21.3836 3.32896 21.5501 3.48293C21.7166 3.6369 21.7274 3.89472 21.5734 4.06123L18.6372 7.24095C18.4832 7.40745 18.2254 7.4182 18.0589 7.26422C17.8924 7.11025 17.8816 6.85244 18.0356 6.68593L20.9718 3.50621ZM22.2896 4.72904C22.4435 4.56253 22.7013 4.55179 22.8678 4.70576C23.0343 4.85974 23.0451 5.11934 22.8911 5.28406L19.5395 8.91317C19.527 8.9257 19.5145 8.93644 19.5019 8.94898C18.7392 9.68303 18.0105 10.1074 17.3141 10.2273C16.5585 10.358 15.8656 10.1432 15.2301 9.58814C15.06 9.43954 15.0439 9.17994 15.1907 9.01164C15.3393 8.84155 15.5989 8.82544 15.7672 8.97225C16.2058 9.35539 16.6749 9.50579 17.1708 9.41806C17.7044 9.32675 18.2916 8.97404 18.9326 8.35636L18.9362 8.35278L22.286 4.72725L22.2896 4.72904Z" fill="#004E6B" stroke="#004E6B" stroke-width="0.4"/>
</svg>
