<svg width="19" height="18" viewBox="0 0 19 18" fill="none" xmlns="http://www.w3.org/2000/svg">
<path fill-rule="evenodd" clip-rule="evenodd" d="M14.8908 12.9087L13.5545 14.1813L17.5632 18L18.9004 16.7274L14.8908 12.9087ZM7.56039 12.6C10.6864 12.6 13.2304 10.1772 13.2304 7.2C13.2304 4.2219 10.6864 1.8 7.56039 1.8C4.43338 1.8 1.8904 4.2219 1.8904 7.2C1.8904 10.1772 4.43338 12.6 7.56039 12.6ZM7.56039 0C11.7354 0 15.1204 3.2238 15.1204 7.2C15.1204 11.1762 11.7354 14.4 7.56039 14.4C3.38443 14.4 0.000391006 11.1762 0.000391006 7.2C0.000391006 3.2238 3.38443 0 7.56039 0Z" fill="#004E6B"/>
</svg>
