<svg width="14" height="14" viewBox="0 0 14 14" fill="none" xmlns="http://www.w3.org/2000/svg">
<path d="M5.5 12H8.5C11 12 12 11 12 8.5V5.5C12 3 11 2 8.5 2H5.5C3 2 2 3 2 5.5V8.5C2 11 3 12 5.5 12Z" stroke="#282828" stroke-opacity="0.7" stroke-width="1.5" stroke-linecap="round" stroke-linejoin="round"/>
<path d="M5.5 6C6.05228 6 6.5 5.55228 6.5 5C6.5 4.44772 6.05228 4 5.5 4C4.94772 4 4.5 4.44772 4.5 5C4.5 5.55228 4.94772 6 5.5 6Z" stroke="#282828" stroke-opacity="0.7" stroke-width="1.5" stroke-linecap="round" stroke-linejoin="round"/>
<path d="M2.33594 10.4743L4.80094 8.8193C5.19594 8.5543 5.76594 8.5843 6.12094 8.8893L6.28594 9.0343C6.67594 9.3693 7.30594 9.3693 7.69594 9.0343L9.77594 7.2493C10.1659 6.9143 10.7959 6.9143 11.1859 7.2493L12.0009 7.9493" stroke="#282828" stroke-opacity="0.7" stroke-width="1.5" stroke-linecap="round" stroke-linejoin="round"/>
</svg>
