<svg width="200" height="56" viewBox="0 0 200 56" fill="none" xmlns="http://www.w3.org/2000/svg">
<g clip-path="url(#clip0_1230_5384)">
<path d="M104.507 0.0406603C104.507 0.0406603 102.744 -0.239731 100.301 1.24234C98.7788 2.16362 98.218 2.04345 97.9776 1.80312C97.8575 1.60284 97.5771 1.6429 97.497 1.84318C97.3768 2.12357 97.4569 2.52413 98.3382 3.08491C100.02 4.12636 103.345 4.60703 106.069 4.16642C108.793 3.7258 110.115 3.76586 110.115 3.76586C110.115 3.76586 110.475 3.04485 109.514 2.52413C108.552 2.04345 105.869 -0.0795074 104.507 0.0406603Z" fill="#FFFDFD"/>
<path d="M86.1207 7.89059C88.7644 6.00797 91.9288 4.56595 95.3336 4.64607C95.5739 4.64607 95.8142 4.64607 96.0546 4.60601C96.9758 4.5259 99.7397 4.60601 103.305 8.21104C107.631 12.6172 110.675 9.21244 110.875 9.01216C111.035 8.85193 114.961 7.08948 117.925 9.73316C117.965 9.77322 117.965 9.77322 118.005 9.81328C119.928 11.5357 119.127 14.7001 116.603 15.3009C111.596 16.4225 103.986 17.3438 96.4952 15.2208C93.0504 14.2194 90.1663 13.7788 87.803 13.6987C84.7989 13.4984 83.6773 9.65305 86.1207 7.89059Z" fill="#FFFDFD"/>
<path d="M73.8242 20.6292C73.8242 20.6292 82.0357 16.3432 95.3342 17.3046C108.593 18.306 116.283 20.469 124.054 17.3046C124.054 17.3046 120.169 21.7908 93.1712 20.9096C93.1712 20.9096 75.6668 20.2687 73.8242 20.6292Z" fill="#FFFDFD"/>
<path d="M67.5352 24.5947C67.5352 24.5947 86.5217 23.4731 93.4914 22.672C100.461 21.8709 130.143 23.9939 132.306 24.7149C134.469 25.4359 110.435 24.9953 103.986 26.4373C97.5771 27.8793 72.3819 27.1583 67.5352 24.5947Z" fill="#FFFDFD"/>
</g>
<path d="M1.504 51.1582V39.9582H3.216L8.112 48.1342H7.216L12.032 39.9582H13.744L13.76 51.1582H11.792L11.776 43.0462H12.192L8.096 49.8782H7.168L3.008 43.0462H3.488V51.1582H1.504ZM20.4333 51.2702C19.5586 51.2702 18.7799 51.0835 18.0973 50.7102C17.4146 50.3262 16.8759 49.8035 16.4813 49.1422C16.0866 48.4809 15.8893 47.7289 15.8893 46.8862C15.8893 46.0329 16.0866 45.2809 16.4813 44.6302C16.8759 43.9689 17.4146 43.4515 18.0973 43.0782C18.7799 42.7049 19.5586 42.5182 20.4333 42.5182C21.3186 42.5182 22.1026 42.7049 22.7853 43.0782C23.4786 43.4515 24.0173 43.9635 24.4013 44.6142C24.7959 45.2649 24.9933 46.0222 24.9933 46.8862C24.9933 47.7289 24.7959 48.4809 24.4013 49.1422C24.0173 49.8035 23.4786 50.3262 22.7853 50.7102C22.1026 51.0835 21.3186 51.2702 20.4333 51.2702ZM20.4333 49.5582C20.9239 49.5582 21.3613 49.4515 21.7453 49.2382C22.1293 49.0249 22.4279 48.7155 22.6413 48.3102C22.8653 47.9049 22.9773 47.4302 22.9773 46.8862C22.9773 46.3315 22.8653 45.8569 22.6413 45.4622C22.4279 45.0569 22.1293 44.7475 21.7453 44.5342C21.3613 44.3209 20.9293 44.2142 20.4493 44.2142C19.9586 44.2142 19.5213 44.3209 19.1373 44.5342C18.7639 44.7475 18.4653 45.0569 18.2413 45.4622C18.0173 45.8569 17.9053 46.3315 17.9053 46.8862C17.9053 47.4302 18.0173 47.9049 18.2413 48.3102C18.4653 48.7155 18.7639 49.0249 19.1373 49.2382C19.5213 49.4515 19.9533 49.5582 20.4333 49.5582ZM30.5218 51.2702C29.7964 51.2702 29.1564 51.1369 28.6018 50.8702C28.0471 50.5929 27.6151 50.1769 27.3058 49.6222C26.9964 49.0569 26.8418 48.3475 26.8418 47.4942V42.6142H28.8418V47.2222C28.8418 47.9902 29.0124 48.5662 29.3538 48.9502C29.7058 49.3235 30.2018 49.5102 30.8418 49.5102C31.3111 49.5102 31.7164 49.4142 32.0578 49.2222C32.4098 49.0302 32.6818 48.7422 32.8738 48.3582C33.0764 47.9742 33.1778 47.4995 33.1778 46.9342V42.6142H35.1778V51.1582H33.2738V48.8542L33.6098 49.5582C33.3218 50.1129 32.9004 50.5395 32.3458 50.8382C31.7911 51.1262 31.1831 51.2702 30.5218 51.2702ZM42.6444 42.5182C43.327 42.5182 43.935 42.6515 44.4684 42.9182C45.0124 43.1849 45.439 43.5955 45.7484 44.1502C46.0577 44.6942 46.2124 45.3982 46.2124 46.2622V51.1582H44.2124V46.5182C44.2124 45.7609 44.031 45.1955 43.6684 44.8222C43.3164 44.4489 42.8204 44.2622 42.1804 44.2622C41.711 44.2622 41.295 44.3582 40.9324 44.5502C40.5697 44.7422 40.287 45.0302 40.0844 45.4142C39.8924 45.7875 39.7964 46.2622 39.7964 46.8382V51.1582H37.7964V42.6142H39.7004V44.9182L39.3644 44.2142C39.663 43.6702 40.095 43.2542 40.6604 42.9662C41.2364 42.6675 41.8977 42.5182 42.6444 42.5182ZM51.9655 51.2702C51.0268 51.2702 50.3015 51.0302 49.7895 50.5502C49.2775 50.0595 49.0215 49.3395 49.0215 48.3902V40.7262H51.0215V48.3422C51.0215 48.7475 51.1228 49.0622 51.3255 49.2862C51.5388 49.5102 51.8322 49.6222 52.2055 49.6222C52.6535 49.6222 53.0268 49.5049 53.3255 49.2702L53.8855 50.6942C53.6508 50.8862 53.3628 51.0302 53.0215 51.1262C52.6802 51.2222 52.3282 51.2702 51.9655 51.2702ZM47.6135 44.2782V42.6782H53.3095V44.2782H47.6135ZM60.7948 51.1582V49.4302L60.6828 49.0622V46.0382C60.6828 45.4515 60.5068 44.9982 60.1548 44.6782C59.8028 44.3475 59.2694 44.1822 58.5548 44.1822C58.0748 44.1822 57.6001 44.2569 57.1308 44.4062C56.6721 44.5555 56.2828 44.7635 55.9628 45.0302L55.1788 43.5742C55.6374 43.2222 56.1814 42.9609 56.8108 42.7902C57.4508 42.6089 58.1121 42.5182 58.7948 42.5182C60.0321 42.5182 60.9868 42.8169 61.6588 43.4142C62.3414 44.0009 62.6828 44.9129 62.6828 46.1502V51.1582H60.7948ZM58.1068 51.2702C57.4668 51.2702 56.9068 51.1635 56.4268 50.9502C55.9468 50.7262 55.5734 50.4222 55.3068 50.0382C55.0508 49.6435 54.9228 49.2009 54.9228 48.7102C54.9228 48.2302 55.0348 47.7982 55.2588 47.4142C55.4934 47.0302 55.8721 46.7262 56.3948 46.5022C56.9174 46.2782 57.6108 46.1662 58.4748 46.1662H60.9548V47.4942H58.6188C57.9361 47.4942 57.4774 47.6062 57.2428 47.8302C57.0081 48.0435 56.8908 48.3102 56.8908 48.6302C56.8908 48.9929 57.0348 49.2809 57.3228 49.4942C57.6108 49.7075 58.0108 49.8142 58.5228 49.8142C59.0134 49.8142 59.4508 49.7022 59.8348 49.4782C60.2294 49.2542 60.5121 48.9235 60.6828 48.4862L61.0188 49.6862C60.8268 50.1875 60.4801 50.5769 59.9788 50.8542C59.4881 51.1315 58.8641 51.2702 58.1068 51.2702ZM65.2495 51.1582V42.6142H67.2495V51.1582H65.2495ZM66.2575 41.2062C65.8842 41.2062 65.5748 41.0889 65.3295 40.8542C65.0948 40.6195 64.9775 40.3369 64.9775 40.0062C64.9775 39.6649 65.0948 39.3822 65.3295 39.1582C65.5748 38.9235 65.8842 38.8062 66.2575 38.8062C66.6308 38.8062 66.9348 38.9182 67.1695 39.1422C67.4148 39.3555 67.5375 39.6275 67.5375 39.9582C67.5375 40.3102 67.4202 40.6089 67.1855 40.8542C66.9508 41.0889 66.6415 41.2062 66.2575 41.2062ZM74.7225 42.5182C75.4052 42.5182 76.0132 42.6515 76.5465 42.9182C77.0905 43.1849 77.5172 43.5955 77.8265 44.1502C78.1358 44.6942 78.2905 45.3982 78.2905 46.2622V51.1582H76.2905V46.5182C76.2905 45.7609 76.1092 45.1955 75.7465 44.8222C75.3945 44.4489 74.8985 44.2622 74.2585 44.2622C73.7892 44.2622 73.3732 44.3582 73.0105 44.5502C72.6478 44.7422 72.3652 45.0302 72.1625 45.4142C71.9705 45.7875 71.8745 46.2622 71.8745 46.8382V51.1582H69.8745V42.6142H71.7785V44.9182L71.4425 44.2142C71.7412 43.6702 72.1732 43.2542 72.7385 42.9662C73.3145 42.6675 73.9758 42.5182 74.7225 42.5182ZM85.4415 51.1582V39.9582H90.6895C92.0335 39.9582 93.0575 40.2249 93.7615 40.7582C94.4655 41.2809 94.8175 41.9849 94.8175 42.8702C94.8175 43.4675 94.6788 43.9795 94.4015 44.4062C94.1242 44.8222 93.7508 45.1475 93.2815 45.3822C92.8228 45.6062 92.3215 45.7182 91.7775 45.7182L92.0655 45.1422C92.6948 45.1422 93.2602 45.2595 93.7615 45.4942C94.2628 45.7182 94.6575 46.0489 94.9455 46.4862C95.2442 46.9235 95.3935 47.4675 95.3935 48.1182C95.3935 49.0782 95.0255 49.8249 94.2895 50.3582C93.5535 50.8915 92.4602 51.1582 91.0095 51.1582H85.4415ZM87.5215 49.5262H90.8815C91.6602 49.5262 92.2575 49.3982 92.6735 49.1422C93.0895 48.8862 93.2975 48.4755 93.2975 47.9102C93.2975 47.3555 93.0895 46.9502 92.6735 46.6942C92.2575 46.4275 91.6602 46.2942 90.8815 46.2942H87.3615V44.6782H90.4655C91.1908 44.6782 91.7455 44.5502 92.1295 44.2942C92.5242 44.0382 92.7215 43.6542 92.7215 43.1422C92.7215 42.6195 92.5242 42.2302 92.1295 41.9742C91.7455 41.7182 91.1908 41.5902 90.4655 41.5902H87.5215V49.5262ZM97.4214 51.1582V42.6142H99.3254V44.9662L99.1014 44.2782C99.3574 43.7022 99.7574 43.2649 100.301 42.9662C100.856 42.6675 101.544 42.5182 102.365 42.5182V44.4222C102.28 44.4009 102.2 44.3902 102.125 44.3902C102.051 44.3795 101.976 44.3742 101.901 44.3742C101.144 44.3742 100.541 44.5982 100.093 45.0462C99.6454 45.4835 99.4214 46.1395 99.4214 47.0142V51.1582H97.4214ZM108 51.2702C107.051 51.2702 106.219 51.0835 105.504 50.7102C104.8 50.3262 104.251 49.8035 103.856 49.1422C103.472 48.4809 103.28 47.7289 103.28 46.8862C103.28 46.0329 103.467 45.2809 103.84 44.6302C104.224 43.9689 104.747 43.4515 105.408 43.0782C106.08 42.7049 106.843 42.5182 107.696 42.5182C108.528 42.5182 109.269 42.6995 109.92 43.0622C110.571 43.4249 111.083 43.9369 111.456 44.5982C111.829 45.2595 112.016 46.0382 112.016 46.9342C112.016 47.0195 112.011 47.1155 112 47.2222C112 47.3289 111.995 47.4302 111.984 47.5262H104.864V46.1982H110.928L110.144 46.6142C110.155 46.1235 110.053 45.6915 109.84 45.3182C109.627 44.9449 109.333 44.6515 108.96 44.4382C108.597 44.2249 108.176 44.1182 107.696 44.1182C107.205 44.1182 106.773 44.2249 106.4 44.4382C106.037 44.6515 105.749 44.9502 105.536 45.3342C105.333 45.7075 105.232 46.1502 105.232 46.6622V46.9822C105.232 47.4942 105.349 47.9475 105.584 48.3422C105.819 48.7369 106.149 49.0409 106.576 49.2542C107.003 49.4675 107.493 49.5742 108.048 49.5742C108.528 49.5742 108.96 49.4995 109.344 49.3502C109.728 49.2009 110.069 48.9662 110.368 48.6462L111.44 49.8782C111.056 50.3262 110.571 50.6729 109.984 50.9182C109.408 51.1529 108.747 51.2702 108 51.2702ZM117.953 51.2702C117.004 51.2702 116.172 51.0835 115.457 50.7102C114.753 50.3262 114.204 49.8035 113.809 49.1422C113.425 48.4809 113.233 47.7289 113.233 46.8862C113.233 46.0329 113.42 45.2809 113.793 44.6302C114.177 43.9689 114.7 43.4515 115.361 43.0782C116.033 42.7049 116.796 42.5182 117.649 42.5182C118.481 42.5182 119.222 42.6995 119.873 43.0622C120.524 43.4249 121.036 43.9369 121.409 44.5982C121.782 45.2595 121.969 46.0382 121.969 46.9342C121.969 47.0195 121.964 47.1155 121.953 47.2222C121.953 47.3289 121.948 47.4302 121.937 47.5262H114.817V46.1982H120.881L120.097 46.6142C120.108 46.1235 120.006 45.6915 119.793 45.3182C119.58 44.9449 119.286 44.6515 118.913 44.4382C118.55 44.2249 118.129 44.1182 117.649 44.1182C117.158 44.1182 116.726 44.2249 116.353 44.4382C115.99 44.6515 115.702 44.9502 115.489 45.3342C115.286 45.7075 115.185 46.1502 115.185 46.6622V46.9822C115.185 47.4942 115.302 47.9475 115.537 48.3422C115.772 48.7369 116.102 49.0409 116.529 49.2542C116.956 49.4675 117.446 49.5742 118.001 49.5742C118.481 49.5742 118.913 49.4995 119.297 49.3502C119.681 49.2009 120.022 48.9662 120.321 48.6462L121.393 49.8782C121.009 50.3262 120.524 50.6729 119.937 50.9182C119.361 51.1529 118.7 51.2702 117.953 51.2702ZM123.108 51.1582V49.8942L128.372 43.5262L128.74 44.2142H123.204V42.6142H130.34V43.8782L125.076 50.2462L124.676 49.5582H130.484V51.1582H123.108ZM136.219 51.2702C135.269 51.2702 134.437 51.0835 133.723 50.7102C133.019 50.3262 132.469 49.8035 132.075 49.1422C131.691 48.4809 131.499 47.7289 131.499 46.8862C131.499 46.0329 131.685 45.2809 132.059 44.6302C132.443 43.9689 132.965 43.4515 133.627 43.0782C134.299 42.7049 135.061 42.5182 135.915 42.5182C136.747 42.5182 137.488 42.6995 138.139 43.0622C138.789 43.4249 139.301 43.9369 139.675 44.5982C140.048 45.2595 140.235 46.0382 140.235 46.9342C140.235 47.0195 140.229 47.1155 140.219 47.2222C140.219 47.3289 140.213 47.4302 140.203 47.5262H133.083V46.1982H139.147L138.363 46.6142C138.373 46.1235 138.272 45.6915 138.059 45.3182C137.845 44.9449 137.552 44.6515 137.179 44.4382C136.816 44.2249 136.395 44.1182 135.915 44.1182C135.424 44.1182 134.992 44.2249 134.619 44.4382C134.256 44.6515 133.968 44.9502 133.755 45.3342C133.552 45.7075 133.451 46.1502 133.451 46.6622V46.9822C133.451 47.4942 133.568 47.9475 133.803 48.3422C134.037 48.7369 134.368 49.0409 134.795 49.2542C135.221 49.4675 135.712 49.5742 136.267 49.5742C136.747 49.5742 137.179 49.4995 137.563 49.3502C137.947 49.2009 138.288 48.9662 138.587 48.6462L139.659 49.8782C139.275 50.3262 138.789 50.6729 138.203 50.9182C137.627 51.1529 136.965 51.2702 136.219 51.2702ZM146.77 51.1582V39.9582H151.378C152.37 39.9582 153.218 40.1182 153.922 40.4382C154.636 40.7582 155.186 41.2169 155.57 41.8142C155.954 42.4115 156.146 43.1209 156.146 43.9422C156.146 44.7635 155.954 45.4729 155.57 46.0702C155.186 46.6569 154.636 47.1102 153.922 47.4302C153.218 47.7395 152.37 47.8942 151.378 47.8942H147.922L148.85 46.9502V51.1582H146.77ZM154.098 51.1582L151.266 47.0942H153.49L156.338 51.1582H154.098ZM148.85 47.1742L147.922 46.1822H151.282C152.199 46.1822 152.887 45.9849 153.346 45.5902C153.815 45.1955 154.05 44.6462 154.05 43.9422C154.05 43.2275 153.815 42.6782 153.346 42.2942C152.887 41.9102 152.199 41.7182 151.282 41.7182H147.922L148.85 40.6942V47.1742ZM162.297 51.2702C161.347 51.2702 160.515 51.0835 159.801 50.7102C159.097 50.3262 158.547 49.8035 158.153 49.1422C157.769 48.4809 157.577 47.7289 157.577 46.8862C157.577 46.0329 157.763 45.2809 158.137 44.6302C158.521 43.9689 159.043 43.4515 159.705 43.0782C160.377 42.7049 161.139 42.5182 161.993 42.5182C162.825 42.5182 163.566 42.6995 164.217 43.0622C164.867 43.4249 165.379 43.9369 165.753 44.5982C166.126 45.2595 166.313 46.0382 166.313 46.9342C166.313 47.0195 166.307 47.1155 166.297 47.2222C166.297 47.3289 166.291 47.4302 166.281 47.5262H159.161V46.1982H165.225L164.441 46.6142C164.451 46.1235 164.35 45.6915 164.137 45.3182C163.923 44.9449 163.63 44.6515 163.257 44.4382C162.894 44.2249 162.473 44.1182 161.993 44.1182C161.502 44.1182 161.07 44.2249 160.697 44.4382C160.334 44.6515 160.046 44.9502 159.833 45.3342C159.63 45.7075 159.529 46.1502 159.529 46.6622V46.9822C159.529 47.4942 159.646 47.9475 159.881 48.3422C160.115 48.7369 160.446 49.0409 160.873 49.2542C161.299 49.4675 161.79 49.5742 162.345 49.5742C162.825 49.5742 163.257 49.4995 163.641 49.3502C164.025 49.2009 164.366 48.9662 164.665 48.6462L165.737 49.8782C165.353 50.3262 164.867 50.6729 164.281 50.9182C163.705 51.1529 163.043 51.2702 162.297 51.2702ZM170.874 51.2702C170.159 51.2702 169.471 51.1795 168.81 50.9982C168.159 50.8062 167.642 50.5769 167.258 50.3102L168.026 48.7902C168.41 49.0355 168.869 49.2382 169.402 49.3982C169.935 49.5582 170.469 49.6382 171.002 49.6382C171.631 49.6382 172.085 49.5529 172.362 49.3822C172.65 49.2115 172.794 48.9822 172.794 48.6942C172.794 48.4595 172.698 48.2835 172.506 48.1662C172.314 48.0382 172.063 47.9422 171.754 47.8782C171.445 47.8142 171.098 47.7555 170.714 47.7022C170.341 47.6489 169.962 47.5795 169.578 47.4942C169.205 47.3982 168.863 47.2649 168.554 47.0942C168.245 46.9129 167.994 46.6729 167.802 46.3742C167.61 46.0755 167.514 45.6809 167.514 45.1902C167.514 44.6462 167.669 44.1769 167.978 43.7822C168.287 43.3769 168.719 43.0675 169.274 42.8542C169.839 42.6302 170.506 42.5182 171.274 42.5182C171.85 42.5182 172.431 42.5822 173.018 42.7102C173.605 42.8382 174.09 43.0195 174.474 43.2542L173.706 44.7742C173.301 44.5289 172.89 44.3635 172.474 44.2782C172.069 44.1822 171.663 44.1342 171.258 44.1342C170.65 44.1342 170.197 44.2249 169.898 44.4062C169.61 44.5875 169.466 44.8169 169.466 45.0942C169.466 45.3502 169.562 45.5422 169.754 45.6702C169.946 45.7982 170.197 45.8995 170.506 45.9742C170.815 46.0489 171.157 46.1129 171.53 46.1662C171.914 46.2089 172.293 46.2782 172.666 46.3742C173.039 46.4702 173.381 46.6035 173.69 46.7742C174.01 46.9342 174.266 47.1635 174.458 47.4622C174.65 47.7609 174.746 48.1502 174.746 48.6302C174.746 49.1635 174.586 49.6275 174.266 50.0222C173.957 50.4169 173.514 50.7262 172.938 50.9502C172.362 51.1635 171.674 51.2702 170.874 51.2702ZM180.308 51.2702C179.434 51.2702 178.655 51.0835 177.972 50.7102C177.29 50.3262 176.751 49.8035 176.356 49.1422C175.962 48.4809 175.764 47.7289 175.764 46.8862C175.764 46.0329 175.962 45.2809 176.356 44.6302C176.751 43.9689 177.29 43.4515 177.972 43.0782C178.655 42.7049 179.434 42.5182 180.308 42.5182C181.194 42.5182 181.978 42.7049 182.66 43.0782C183.354 43.4515 183.892 43.9635 184.276 44.6142C184.671 45.2649 184.868 46.0222 184.868 46.8862C184.868 47.7289 184.671 48.4809 184.276 49.1422C183.892 49.8035 183.354 50.3262 182.66 50.7102C181.978 51.0835 181.194 51.2702 180.308 51.2702ZM180.308 49.5582C180.799 49.5582 181.236 49.4515 181.62 49.2382C182.004 49.0249 182.303 48.7155 182.516 48.3102C182.74 47.9049 182.852 47.4302 182.852 46.8862C182.852 46.3315 182.74 45.8569 182.516 45.4622C182.303 45.0569 182.004 44.7475 181.62 44.5342C181.236 44.3209 180.804 44.2142 180.324 44.2142C179.834 44.2142 179.396 44.3209 179.012 44.5342C178.639 44.7475 178.34 45.0569 178.116 45.4622C177.892 45.8569 177.78 46.3315 177.78 46.8862C177.78 47.4302 177.892 47.9049 178.116 48.3102C178.34 48.7155 178.639 49.0249 179.012 49.2382C179.396 49.4515 179.828 49.5582 180.308 49.5582ZM186.781 51.1582V42.6142H188.685V44.9662L188.461 44.2782C188.717 43.7022 189.117 43.2649 189.661 42.9662C190.215 42.6675 190.903 42.5182 191.725 42.5182V44.4222C191.639 44.4009 191.559 44.3902 191.485 44.3902C191.41 44.3795 191.335 44.3742 191.261 44.3742C190.503 44.3742 189.901 44.5982 189.453 45.0462C189.005 45.4835 188.781 46.1395 188.781 47.0142V51.1582H186.781ZM196.95 51.2702C196.011 51.2702 195.286 51.0302 194.774 50.5502C194.262 50.0595 194.006 49.3395 194.006 48.3902V40.7262H196.006V48.3422C196.006 48.7475 196.107 49.0622 196.31 49.2862C196.523 49.5102 196.817 49.6222 197.19 49.6222C197.638 49.6222 198.011 49.5049 198.31 49.2702L198.87 50.6942C198.635 50.8862 198.347 51.0302 198.006 51.1262C197.665 51.2222 197.313 51.2702 196.95 51.2702ZM192.598 44.2782V42.6782H198.294V44.2782H192.598Z" fill="#FFFDFD"/>
<defs>
<clipPath id="clip0_1230_5384">
<rect width="64.9306" height="27.1579" fill="white" transform="translate(67.5352)"/>
</clipPath>
</defs>
</svg>
