<svg width="18" height="13" viewBox="0 0 18 13" fill="none" xmlns="http://www.w3.org/2000/svg">
<path d="M0.224 12L3.872 7.264L3.856 8.048L0.384 3.52H2.096L4.752 7.008H4.096L6.752 3.52H8.432L4.912 8.08L4.928 7.264L8.608 12H6.864L4.064 8.288L4.688 8.384L1.936 12H0.224ZM13.0201 12.128C12.2308 12.128 11.4628 12.0053 10.7161 11.76C9.98013 11.5147 9.37746 11.184 8.90813 10.768L9.64413 9.504C10.0175 9.856 10.5028 10.144 11.1001 10.368C11.6975 10.592 12.3375 10.704 13.0201 10.704C13.8521 10.704 14.4975 10.528 14.9561 10.176C15.4255 9.81333 15.6601 9.328 15.6601 8.72C15.6601 8.13333 15.4361 7.664 14.9881 7.312C14.5508 6.94933 13.8521 6.768 12.8921 6.768H11.9961V5.648L15.3241 1.552L15.5481 2.192H9.42013V0.799999H16.8121V1.888L13.5001 5.968L12.6681 5.472H13.1961C14.5508 5.472 15.5641 5.776 16.2361 6.384C16.9188 6.992 17.2601 7.76533 17.2601 8.704C17.2601 9.33333 17.1055 9.90933 16.7961 10.432C16.4868 10.9547 16.0175 11.3707 15.3881 11.68C14.7695 11.9787 13.9801 12.128 13.0201 12.128Z" fill="#928C8C"/>
</svg>
